<svg xmlns="http://www.w3.org/2000/svg" viewBox="0 0 96 96">
  <rect x="6" y="6" width="84" height="84" rx="26" fill="#FBEEDB"/>
  <ellipse cx="48" cy="70" rx="30" ry="7" fill="#EAD9B8" opacity=".7"/>
  <!-- 巴斯克蛋糕切块：侧面三角 + 焦面 -->
  <path d="M28 62h40l-5 10H33Z" fill="#F2B95E" stroke="#3A2A1E" stroke-width="3" stroke-linejoin="round"/>
  <path d="M33 72h30" stroke="#3A2A1E" stroke-width="3" stroke-linecap="round"/>
  <!-- 顶部焦黑层 -->
  <path d="M28 62c2-12 14-16 26-15 9 1 13 7 14 15Z" fill="#C97938" stroke="#3A2A1E" stroke-width="3" stroke-linejoin="round"/>
  <path d="M30 59c5-9 14-12 24-11 7 1 11 5 13 10" fill="none" stroke="#3A2A1E" stroke-width="2.4" opacity=".5"/>
  <!-- 内芯浅色切面 -->
  <path d="M30 62h36" stroke="#3A2A1E" stroke-width="2.2" opacity=".6"/>
  <circle cx="33" cy="66.5" r="1.6" fill="#EAD9B8"/>
  <circle cx="38" cy="67.5" r="1.4" fill="#EAD9B8"/>
  <circle cx="60" cy="66" r="1.4" fill="#EAD9B8"/>
  <!-- 莓果 -->
  <circle cx="72" cy="46" r="4" fill="#B5475B" stroke="#3A2A1E" stroke-width="2"/>
  <path d="M72 42c-1-2-3-2-4 0" fill="none" stroke="#4FA46A" stroke-width="2" stroke-linecap="round"/>
  <circle cx="21" cy="50" r="3.4" fill="#FF6B4A" stroke="#3A2A1E" stroke-width="1.8"/>
  <path d="M44 28c-2 3 2 4 0 7" fill="none" stroke="#3A2A1E" stroke-width="2.4" stroke-linecap="round" opacity=".6"/>
</svg>
