<svg xmlns="http://www.w3.org/2000/svg" viewBox="0 0 96 96">
  <rect x="6" y="6" width="84" height="84" rx="26" fill="#F5F0DD"/>
  <!-- 盘子 -->
  <ellipse cx="48" cy="66" rx="30" ry="9" fill="#FFFDF4" stroke="#3A2A1E" stroke-width="3"/>
  <ellipse cx="48" cy="64" rx="22" ry="6.5" fill="#EFE6CF"/>
  <!-- 糯米饭团 -->
  <path d="M32 62c0-12 8-18 16-18s16 6 16 18v-4h-32Z" fill="#FBF6E7" stroke="#3A2A1E" stroke-width="2.6" stroke-linejoin="round"/>
  <path d="M40 52c-1 2 1 3 0 5" fill="none" stroke="#E4D7B4" stroke-width="1.8" stroke-linecap="round"/>
  <path d="M50 50c-1 2 1 3 0 5" fill="none" stroke="#E4D7B4" stroke-width="1.8" stroke-linecap="round"/>
  <!-- 芒果切片 -->
  <path d="M28 60c2-8 12-12 19-8" fill="none" stroke="#3A2A1E" stroke-width="2.2"/>
  <path d="M30 62c3-7 12-10 18-6-4 5-12 7-18 6Z" fill="#FFC24D" stroke="#3A2A1E" stroke-width="2.4" stroke-linejoin="round"/>
  <path d="M62 58c3-6 10-8 14-4-3 5-10 7-14 4Z" fill="#FFC24D" stroke="#3A2A1E" stroke-width="2.4" stroke-linejoin="round"/>
  <!-- 椰浆淋酱 -->
  <path d="M47 67c3 0 6 0 8-2" fill="none" stroke="#FFFDF4" stroke-width="3" stroke-linecap="round"/>
  <circle cx="22" cy="26" r="3.4" fill="#FFC24D"/>
  <circle cx="78" cy="24" r="3" fill="#4FA46A"/>
</svg>
